<svg id="logo" xmlns="http://www.w3.org/2000/svg" width="3750" height="1375" viewBox="0 0 3750 1375">
  <defs>
    <style>
      .cls-1 {
        fill: #010101;
      }

      .cls-1, .cls-2, .cls-4 {
        fill-rule: evenodd;
      }

      .cls-2, .cls-3 {
        fill: #346835;
      }

      .cls-4 {
        fill: #fff;
      }
    </style>
  </defs>
  <path id="GCdocs" class="cls-1" d="M2002.01,868.263h53.58V661.43H1894.84v62.693h84.66c-4.82,53.048-36.44,82.519-91.09,82.519-75.56,0-103.95-64.3-103.95-128.065,0-66.98,28.39-131.28,103.95-131.28,39.65,0,71.26,21.969,80.91,64.3h80.37c-9.1-86.8-83.05-135.031-161.28-135.031-118.42,0-188.08,88.413-188.08,202.011,0,110.382,69.66,198.795,188.08,198.795,36.97,0,75.55-14.468,105.02-52.512Zm458.14-253.987c-10.18-88.413-80.92-137.71-165.04-137.71-118.42,0-188.08,88.413-188.08,202.011,0,110.382,69.66,198.795,188.08,198.795,93.77,0,159.68-61.085,168.25-156.464h-81.45c-6.43,50.368-35.36,85.734-86.8,85.734-75.55,0-103.95-64.3-103.95-128.065,0-66.98,28.4-131.28,103.95-131.28,41.79,0,78.23,28.935,83.59,66.979h81.45Z"/>
  <path id="GCdocs-2" data-name="GCdocs" class="cls-2" d="M2743.9,515.1h-42.04V646.67h-0.99c-18.8-30.173-56.39-40.065-82.6-40.065-78.15,0-116.73,60.839-116.73,133.055S2540.61,874.2,2619.26,874.2c35.12,0,67.76-12.365,81.61-40.559h0.99v34.624h42.04V515.1ZM2546.05,742.627c0-49.957,19.29-98.925,76.67-98.925,57.87,0,80.62,46.5,80.62,96.947,0,47.979-21.76,96.452-78.15,96.452C2570.78,837.1,2546.05,790.606,2546.05,742.627Zm248.79-1.978c0,74.689,43.04,133.549,124.15,133.549s124.16-58.86,124.16-133.549c0-75.184-43.04-134.044-124.16-134.044S2794.84,665.465,2794.84,740.649Zm44.52,0c0-62.323,35.61-96.947,79.63-96.947s79.64,34.624,79.64,96.947c0,61.828-35.61,96.452-79.64,96.452S2839.36,802.477,2839.36,740.649Zm470.39-46c-5.94-60.839-52.43-88.043-110.31-88.043-81.12,0-120.69,60.344-120.69,137.012,0,76.172,41.55,130.581,119.7,130.581,64.31,0,103.38-37.1,112.78-99.42H3268.2c-5.44,38.581-29.68,62.323-70.24,62.323-53.42,0-74.69-46.495-74.69-93.484,0-51.936,18.8-99.915,79.64-99.915,34.62,0,56.88,18.8,63.31,50.946h43.53Zm32.14,92.99c2.47,63.313,50.95,86.56,108.32,86.56,51.94,0,108.82-19.785,108.82-80.624,0-49.463-41.55-63.312-83.59-72.71-39.08-9.4-83.59-14.344-83.59-44.517,0-25.72,29.18-32.645,54.41-32.645,27.7,0,56.38,10.387,59.35,43.032h42.05c-3.47-62.323-48.48-80.129-104.87-80.129-44.51,0-95.46,21.269-95.46,72.71,0,48.968,42.04,62.818,83.59,72.216,42.05,9.4,83.6,14.838,83.6,47.484,0,32.151-35.62,38.086-61.83,38.086-34.63,0-67.27-11.871-68.76-49.463h-42.04Z"/>
  <circle id="circle" class="cls-3" cx="797.501" cy="683.409" r="615.22"/>
  <path id="arrows" class="cls-4" d="M1308.7,839.812H1063.81v154.22L796.092,785.822l-267.72,208.21V839.812H283.486S259.863,762.646,259.863,683.9s23.623-159.057,23.623-159.057H528.372V370.627l267.72,208.21,267.718-208.21v154.22H1308.7s23.62,80.316,23.62,159.057S1308.7,839.812,1308.7,839.812ZM796.581,597.289L689.123,682.33l107.458,85.04,107.457-83.859Z"/>
</svg>
